<?xml version="1.0" encoding="iso-8859-1"?>
<!-- Uploaded to: SVG Repo, www.svgrepo.com, Generator: SVG Repo Mixer Tools -->
<svg version="1.1" id="Layer_1" xmlns="http://www.w3.org/2000/svg" xmlns:xlink="http://www.w3.org/1999/xlink" 
	 viewBox="0 0 512 512" xml:space="preserve">
<circle style="fill:#FFD15D;" cx="256" cy="256" r="256"/>
<path style="fill:#F9B54C;" d="M500.302,332.709L376.937,209.344l-1.107,1.705l-41.288-41.288l-15.484,44.806l-95.728-95.728
	l-18.641,74.073l-48.531-48.535L46.114,264.221l177.218,177.218v68.496l0,0C234.029,511.298,244.933,512,256,512
	C370.66,512,467.708,436.617,500.302,332.709z"/>
<g>
	<path style="fill:#73C98C;" d="M312.889,227.556l42.199-21.099c8.507-4.253,18.837-1.815,24.545,5.794l75.478,100.638
		l-75.304-75.304c-5.989-5.989-15.139-7.475-22.716-3.686L312.889,256V227.556z"/>
	<path style="fill:#73C98C;" d="M209.886,165.959l-48.592-24.297c-9.795-4.898-21.692-2.089-28.263,6.672L46.114,264.221
		l86.712-86.712c6.897-6.897,17.434-8.607,26.159-4.244l50.9,25.45V165.959z"/>
</g>
<g>
	<rect x="288.668" y="169.753" style="fill:#2C9984;" width="45.877" height="114.691"/>
	<path style="fill:#2C9984;" d="M288.668,509.935c15.789-2.012,31.122-5.477,45.877-10.228V399.143h-45.877V509.935z"/>
</g>
<rect x="288.668" y="284.444" style="fill:#43A895;" width="45.877" height="114.691"/>
<g>
	<rect x="312.32" y="169.753" style="fill:#278976;" width="22.23" height="114.691"/>
	<path style="fill:#278976;" d="M334.545,399.143h-22.23v106.63c7.54-1.698,14.955-3.724,22.23-6.066V399.143z"/>
</g>
<rect x="312.32" y="284.444" style="fill:#369986;" width="22.23" height="114.691"/>
<path style="fill:#73C98C;" d="M199.111,336.067l42.199-21.099c8.507-4.253,18.837-1.815,24.545,5.794L341.333,421.4l-75.304-75.304
	c-5.989-5.989-15.139-7.475-22.716-3.686l-44.203,22.1V336.067L199.111,336.067z"/>
<g>
	<rect x="170.667" y="118.841" style="fill:#2C9984;" width="52.665" height="131.672"/>
	<path style="fill:#2C9984;" d="M170.667,497.412c16.82,5.946,34.44,10.2,52.665,12.521V382.167h-52.665V497.412z"/>
</g>
<rect x="170.667" y="250.501" style="fill:#43A895;" width="52.665" height="131.672"/>
<g>
	<rect x="197.956" y="118.841" style="fill:#278976;" width="25.371" height="131.672"/>
	<path style="fill:#278976;" d="M223.332,382.169h-25.371v123.199c8.309,1.931,16.77,3.472,25.371,4.567V382.169z"/>
</g>
<rect x="197.956" y="250.501" style="fill:#369986;" width="25.371" height="131.655"/>
</svg>